<svg xmlns="http://www.w3.org/2000/svg" xmlns:xlink="http://www.w3.org/1999/xlink" xmlns:fi="http://pattern.flaticon.com/" x="0" y="0" width="350" height="350" viewBox="0 0 350 350"><rect x="0px" y="0px" width="100%" height="100%" opacity="0" fill="#ffffff"/><defs><g transform="matrix(0.12010069705343836 -0.016680652290253544 0.016680652290253544 0.12010069705343836 36.88817921053166 268.7447764420021)" id="L1_0"><path d="M405.041,89.999c-0.027,0-0.054,0-0.081,0.001h-54.8V50c0-3.314-2.686-6-6-6H36.4C16.315,44.044,0.044,60.315,0,80.4    v250.24c0.044,20.085,16.315,36.356,36.4,36.4h338.24c20.085-0.044,36.356-16.315,36.4-36.4V96    C411.04,92.686,408.354,90,405.041,89.999z M36.4,355.12c-13.458-0.044-24.356-10.942-24.4-24.4V80.64    c0.044-13.458,10.943-24.356,24.4-24.4h301.76v274.4c0.022,9.021,3.385,17.714,9.44,24.4L36.4,355.12z M398.64,330.64    c0.003,13.335-10.668,24.219-24,24.48c-13.253,0.223-24.177-10.34-24.4-23.593c-0.005-0.269-0.005-0.538,0-0.807V102.08h48.4    V330.64z"/><path d="M93.28,80.72c-2.368,0.043-4.277,1.952-4.32,4.32v33.04L62.64,82.24c-1.428-1.92-4.13-2.347-6.08-0.96    c-1.165,0.855-1.826,2.236-1.76,3.68v46.72c-0.051,2.43,1.878,4.44,4.307,4.491c0.138,0.003,0.275-0.001,0.413-0.011    c2.381-0.085,4.279-2.018,4.32-4.4V98.4l25.76,35.68l0.4,0.48c0.803,0.992,2.004,1.577,3.28,1.6c2.412-0.043,4.357-1.988,4.4-4.4    V85.04C97.595,82.659,95.662,80.761,93.28,80.72z"/><path d="M142.64,127.28h-22V112.4h18.72c2.452-0.33,4.173-2.585,3.843-5.037c-0.269-2-1.842-3.574-3.843-3.843h-18.72V88.8h22    c2.425-0.085,4.359-2.054,4.4-4.48c-0.043-2.412-1.988-4.357-4.4-4.4h-26.48c-2.43,0-4.4,1.97-4.4,4.4v47.36    c-0.044,2.43,1.89,4.435,4.319,4.479c0.027,0,0.054,0.001,0.081,0.001h26.48c2.452-0.33,4.173-2.585,3.843-5.037    C146.214,129.122,144.64,127.549,142.64,127.28z"/><path d="M227.44,80.88c-2.254-0.95-4.853,0.082-5.84,2.32l-16,37.2l-10.32-24.64c-0.727-1.649-2.358-2.715-4.16-2.72    c-1.815-0.038-3.467,1.042-4.16,2.72l-10.32,24.64l-16-37.2c-1.301-2.052-4.02-2.661-6.072-1.36    c-1.582,1.003-2.355,2.897-1.928,4.72l23.76,46.8c0.117,0.249,0.251,0.489,0.4,0.72v0.48c0,0,0,0,0.56,0    c0.204,0.209,0.449,0.372,0.72,0.48h0.56h2c0.209-0.058,0.431-0.058,0.64,0l0.64-0.48h0.48l0.48-0.48v-0.72l10.48-24.88    l10.56,24.88c-0.039,0.238-0.039,0.482,0,0.72v0.48h0.56c0.188,0.226,0.439,0.393,0.72,0.48h0.56h1.92h0.64c0,0,0.48,0,0.72-0.48    h0.56v-0.48c0.177-0.213,0.312-0.457,0.4-0.72l19.68-46.8C230.628,84.373,229.626,81.831,227.44,80.88z"/><path d="M285.44,112.24c-1.989-2.921-4.762-5.223-8-6.64c-3.55-1.621-7.284-2.803-11.12-3.52c-3.529-0.518-6.925-1.713-10-3.52    c-0.845-0.551-1.578-1.257-2.16-2.08c-0.412-0.672-0.608-1.454-0.56-2.24c0.135-2.074,1.268-3.953,3.04-5.04    c2.631-1.817,5.763-2.768,8.96-2.72c4.824-0.058,9.478,1.78,12.96,5.12c1.755,1.268,4.205,0.873,5.473-0.882    c0.074-0.103,0.143-0.209,0.207-0.318c1.221-1.885,0.726-4.4-1.12-5.68c-4.896-4.144-11.106-6.412-17.52-6.4    c-4.967-0.061-9.831,1.42-13.92,4.24c-3.876,2.685-6.25,7.047-6.4,11.76c-0.016,2.316,0.622,4.59,1.84,6.56    c1.836,2.745,4.417,4.91,7.44,6.24c3.321,1.476,6.815,2.524,10.4,3.12c3.879,0.567,7.621,1.841,11.04,3.76    c0.972,0.607,1.793,1.428,2.4,2.4c0.489,0.763,0.74,1.654,0.72,2.56c-0.127,2.37-1.414,4.524-3.44,5.76    c-2.949,1.993-6.441,3.027-10,2.96c-5.652-0.337-11.041-2.499-15.36-6.16c-1.769-1.451-4.379-1.201-5.84,0.56    c-1.388,1.803-1.106,4.38,0.64,5.84c5.759,4.873,12.948,7.737,20.48,8.16c5.318,0.094,10.528-1.503,14.88-4.56    c4.181-2.799,6.745-7.451,6.88-12.48C287.358,116.64,286.694,114.287,285.44,112.24z"/><path d="M291.36,155.44H49.52c-3.314,0-6,2.686-6,6s2.686,6,6,6h241.84c3.314,0,6-2.686,6-6S294.674,155.44,291.36,155.44z"/><path d="M264.64,204.08H49.52c-3.314,0-6,2.686-6,6s2.686,6,6,6h215.12c3.314,0,6-2.686,6-6S267.954,204.08,264.64,204.08z"/><path d="M264.64,235.12H49.52c-3.314,0-6,2.686-6,6s2.686,6,6,6h215.12c3.314,0,6-2.686,6-6S267.954,235.12,264.64,235.12z"/><path d="M264.64,266.08H49.52c-3.314,0-6,2.686-6,6s2.686,6,6,6h215.12c3.314,0,6-2.686,6-6S267.954,266.08,264.64,266.08z"/><path d="M264.64,297.12H49.52c-3.314,0-6,2.686-6,6s2.686,6,6,6h215.12c3.314,0,6-2.686,6-6S267.954,297.12,264.64,297.12z"/></g><path d="M355.6,66.16H15.28C6.841,66.16,0,73.001,0,81.44v208c0,8.439,6.841,15.28,15.28,15.28H355.6    c8.439,0,15.28-6.841,15.28-15.28v-208C370.88,73.001,364.039,66.16,355.6,66.16z M15.28,78.16H355.6    c1.436,0.007,2.7,0.947,3.12,2.32L185.44,188.72L12.16,80.48C12.58,79.107,13.844,78.167,15.28,78.16z M12,94.16L136.64,172    L12,270.88V94.16z M358.88,289.36c0,1.812-1.469,3.28-3.28,3.28H15.28c-1.811,0-3.28-1.469-3.28-3.28v-3.2l135.44-107.04    l34.8,21.76c1.955,1.233,4.445,1.233,6.4,0l34.8-21.76l135.44,107.04V289.36z M358.88,270.88l-124.96-98.56l124.96-77.44V270.88z" transform="matrix(0.13174645593675488 -0.018171925294364483 0.018171925294364483 0.13174645593675488 176.18592126188932 182.93074153532288)" id="L1_1"/><path d="M241.44,15.96c-84.96,0-154.32,53.2-158.8,120C33.04,151.96,0,190.52,0,233.4c0.946,31.575,17.215,60.71,43.6,78.08v67.36    c0,3.314,2.686,6,5.999,6.001c1.513,0,2.971-0.572,4.081-1.601l51.36-47.04c8.833,1.447,17.769,2.17,26.72,2.16    c56,0,105.28-27.84,124-69.6c6.24-0.48,12.48-1.12,18.72-2.16l63.04,57.68c2.43,2.253,6.226,2.11,8.479-0.319    c1.029-1.11,1.601-2.567,1.601-4.081v-82.72c33.84-24,53.2-58.32,53.2-94.48C400.72,72.84,329.28,15.96,241.44,15.96z     M131.76,326.36c-9.23,0.011-18.441-0.82-27.52-2.48c-1.838-0.344-3.731,0.188-5.12,1.44l-43.44,40v-57.04    c-0.004-1.989-0.992-3.846-2.64-4.96C26.8,285.64,12,259.88,12,233.32c0-36.48,27.92-69.68,70.24-84.72    c0.411,5.4,1.294,10.754,2.64,16c5.902,24.347,19.375,46.195,38.48,62.4c1.12,1.04,41.76,41.04,118.96,42    C223.68,303.8,180.64,326.36,131.76,326.36z M338.16,229.08c-1.648,1.114-2.636,2.971-2.64,4.96v72l-55.2-50.48    c-1.11-1.029-2.567-1.6-4.08-1.6h-1.12c-10.554,1.961-21.265,2.951-32,2.96c-58.08,0-93.2-22.56-110.4-37.04    c-17.531-15.183-30.262-35.142-36.64-57.44c-1.551-6.582-2.356-13.318-2.4-20.08c0.48-62.88,66.56-114.48,147.76-114.48    S388.72,79.32,388.72,142.6C388.72,175.72,370.32,207.24,338.16,229.08z" transform="matrix(0.09951360523700714 0 0 0.09951360523700714 76.03739833831787 17.057499669312506)" id="L1_2"/><g transform="matrix(0.1163288801908493 0 0 0.1163288801908493 296.5543422730806 -0.46203887462615967)" id="L1_3"><path d="M128.793,57.294c2.614-2.036,3.083-5.806,1.046-8.421c-2.036-2.614-5.806-3.083-8.421-1.046    c-0.527,0.411-0.982,0.906-1.346,1.467c-22.76,24.303-22.76,62.097,0,86.4c1.157,1.116,2.713,1.721,4.32,1.68    c3.314,0,6-2.686,6.001-5.999c0-1.513-0.572-2.971-1.601-4.081C110.352,107.604,110.352,76.984,128.793,57.294z"/><path d="M101.259,151.161c-0.364-0.56-0.818-1.056-1.346-1.467c-30.005-32.077-30.005-81.923,0-114    c2.614-2.036,3.082-5.806,1.046-8.421s-5.806-3.083-8.421-1.046c-0.527,0.411-0.982,0.906-1.346,1.467    c-34.074,36.635-34.074,93.365,0,130c1.804,2.78,5.52,3.57,8.299,1.766C102.272,157.656,103.063,153.94,101.259,151.161z"/><path d="M71.113,11.214c2.614-2.036,3.083-5.806,1.046-8.421c-2.036-2.614-5.806-3.082-8.421-1.046    c-0.527,0.411-0.982,0.906-1.346,1.467c-47.115,50.35-47.115,128.61,0,178.96c1.195,1.029,2.747,1.546,4.32,1.44    c3.313-0.078,5.935-2.826,5.857-6.139c-0.033-1.391-0.548-2.728-1.457-3.781C28.327,127.984,28.327,56.924,71.113,11.214z"/><path d="M248.794,49.374c-1.804-2.78-5.52-3.57-8.299-1.766c-2.78,1.804-3.57,5.52-1.766,8.299    c0.364,0.56,0.818,1.056,1.346,1.467c18.441,19.69,18.441,50.31,0,70c-2.221,2.398-2.115,6.133,0.24,8.4    c2.343,2.34,6.138,2.34,8.48,0C271.553,111.471,271.553,73.678,248.794,49.374z"/><path d="M277.513,27.214c-2.614-2.036-6.384-1.568-8.421,1.046c-1.571,2.017-1.692,4.809-0.299,6.954    c30.005,32.077,30.005,81.923,0,114c-2.275,2.408-2.167,6.204,0.24,8.48c2.343,2.34,6.137,2.34,8.48,0    C311.887,120.992,311.887,63.916,277.513,27.214z"/><path d="M306.313,2.734c-1.804-2.78-5.52-3.57-8.299-1.766s-3.57,5.52-1.766,8.299c0.364,0.56,0.819,1.056,1.346,1.467    c43.087,45.776,43.087,117.184,0,162.96c-2.614,2.036-3.083,5.806-1.046,8.421c2.036,2.614,5.806,3.083,8.421,1.046    c0.527-0.411,0.982-0.906,1.346-1.467C353.429,131.344,353.429,53.084,306.313,2.734z"/><path d="M283.034,360.974l-62.24-209.28c-0.747-2.56-3.093-4.32-5.76-4.32h-26.72v-16.96    c21.171-3.314,35.647-23.162,32.333-44.333c-3.314-21.171-23.162-35.647-44.333-32.333c-21.171,3.314-35.647,23.162-32.333,44.333    c2.607,16.658,15.675,29.726,32.333,32.333v16.96h-26.8c-2.667,0-5.013,1.76-5.76,4.32l-62.16,209.28    c-0.95,3.181,0.859,6.53,4.04,7.48c3.181,0.95,6.53-0.859,7.48-4.04l24.72-83.2h128.96l24.72,83.2    c0.95,3.181,4.299,4.99,7.48,4.04C282.175,367.504,283.983,364.155,283.034,360.974z M155.514,92.334    c0-14.801,11.999-26.8,26.8-26.8c14.801,0,26.8,11.999,26.8,26.8c0,14.801-11.999,26.8-26.8,26.8    C167.512,119.134,155.514,107.135,155.514,92.334z M153.993,159.374h56.56h0.08l16.8,56.64h-90.24L153.993,159.374z     M121.433,269.214l12.24-41.2h97.36l12.24,41.2H121.433z"/></g><path d="M270.357,247.892c-17.919-0.048-34.621,9.065-44.278,24.16l-61.04-47.28c25.004-29.852,23.273-73.806-4-101.6l49.44-46.48    c17.216,18.321,46.023,19.216,64.344,2.001s19.216-46.023,2.001-64.344C259.608-3.972,230.8-4.868,212.48,12.348    c-14.955,14.053-18.658,36.375-9.041,54.504l-51.76,48.8C118.056,90.6,70.491,97.549,45.439,131.172    c-25.051,33.623-18.103,81.188,15.52,106.239c28.665,21.358,68.346,19.825,95.279-3.679l64,49.68    c-9.588,27.212,4.699,57.044,31.911,66.631c5.631,1.984,11.559,2.988,17.529,2.969l0.4-0.32    c28.94,0.077,52.462-23.321,52.539-52.261C322.694,271.491,299.296,247.969,270.357,247.892z M243.999,11.652    c18.689,0,33.84,15.151,33.84,33.84c0,18.689-15.151,33.84-33.84,33.84c-18.689,0-33.84-15.151-33.84-33.84    C210.203,26.821,225.328,11.696,243.999,11.652z M106.799,240.052c-35.346,0-64-28.654-64-64c0-35.346,28.654-64,64-64    c35.346,0,64,28.654,64,64C170.799,211.398,142.145,240.052,106.799,240.052z M270.079,339.652c-22.091,0-40-17.909-40-40    c0.217-22.001,17.999-39.783,40-40c22.091,0,40,17.909,40,40C310.079,321.743,292.17,339.652,270.079,339.652z" transform="matrix(0.10758339096052445 -0.03012334904195557 0.03012334904195557 0.10758339096052445 71.3843855799818 182.17790104432945)" id="L1_4"/><g transform="matrix(0.10371496173802117 -0.03771453172813695 0.03771453172813695 0.10371496173802117 285.9622986018013 233.37657041541704)" id="L1_5"><path d="M288.72,122.188c-1.804-2.779-5.52-3.57-8.299-1.766c-2.78,1.804-3.57,5.52-1.766,8.299    c0.364,0.56,0.819,1.056,1.346,1.467c18.441,19.69,18.441,50.31,0,70c-2.222,2.398-2.115,6.133,0.24,8.4    c2.343,2.34,6.137,2.34,8.48,0C311.48,184.285,311.48,146.492,288.72,122.188z"/><path d="M317.6,99.868c-1.804-2.78-5.52-3.57-8.299-1.766s-3.57,5.52-1.766,8.299c0.364,0.56,0.819,1.056,1.346,1.467    c30.005,32.077,30.005,81.923,0,114c-1.804,2.78-1.013,6.495,1.766,8.299c2.145,1.392,4.937,1.272,6.954-0.299v0.48    C351.973,193.646,351.973,136.57,317.6,99.868z"/><path d="M346.64,75.388c-2.276-2.408-6.074-2.515-8.482-0.238c-0.082,0.077-0.161,0.156-0.238,0.238    c-2.34,2.343-2.34,6.137,0,8.48c42.787,45.71,42.787,116.77,0,162.48c-2.614,2.036-3.083,5.806-1.046,8.421    c2.036,2.614,5.806,3.083,8.421,1.046c0.527-0.411,0.982-0.906,1.346-1.467C393.755,203.998,393.755,125.738,346.64,75.388z"/><path d="M226.96,38.508c-3.314,0-6,2.686-6,6v14.32L12,113.628v-17.12c0-3.314-2.686-6-6-6c-3.314,0-6,2.686-6,6v130.24    c0,3.314,2.686,6,6,6c3.314,0,6-2.686,6-6v-17.12l37.04,9.76l40.96,120c0.823,2.437,3.108,4.078,5.68,4.08h57.28    c3.314,0.013,6.01-2.663,6.023-5.977c0.003-0.689-0.113-1.374-0.343-2.023l-33.04-96l95.36,24.96v14.32c0,3.314,2.686,6,6,6    s6-2.686,6-6V44.508C232.96,41.194,230.274,38.508,226.96,38.508z M144.56,331.548H99.92l-36.8-108.08l48.72,12.8L144.56,331.548z     M220.96,252.028L12,197.148v-71.2l208.96-54.72V252.028z"/><path d="M181.991,102.145c-0.611-3.257-3.747-5.402-7.004-4.791c-0.336,0.063-0.666,0.155-0.987,0.274l-124.72,34.8    c-3.181,0.927-5.009,4.257-4.082,7.439c0.738,2.533,3.044,4.287,5.682,4.321l0.08,0.08h1.6l124.64-35.12    C180.457,108.537,182.602,105.402,181.991,102.145z"/></g><g transform="matrix(0.12543462216854095 0 0 0.12543462216854095 183.73042840894425 315.74790227160634)" id="L1_6"><path d="M276.8,9.52H78c-43.06,0.044-77.956,34.94-78,78v136.8c0,3.314,2.686,6,6,6h184.8v108.96c0,3.314,2.686,6,6,6s6-2.686,6-6    V230.32h146c3.314,0,6-2.686,6-6V87.52C354.756,44.46,319.86,9.564,276.8,9.52z M144,218.32H12V87.52c0-36.451,29.549-66,66-66    s66,29.549,66,66V218.32z M342.8,218.32H156V87.52c0.053-26.928-13.801-51.974-36.64-66.24H276.8    c36.433,0.044,65.956,29.567,66,66V218.32z"/><path d="M260.8,39.68h-1.28l-76-0.48c-3.313,0.052-5.958,2.779-5.906,6.093c0.043,2.75,1.949,5.118,4.626,5.747L182,50.88    c24.495,5.384,40.021,29.567,34.72,54.08c-0.707,3.237,1.344,6.435,4.582,7.142c0.413,0.09,0.835,0.137,1.258,0.138l76,0.48    c2.812-0.01,5.24-1.972,5.84-4.72C311.149,77.108,291.661,46.57,260.8,39.68z M293.44,100.72l-64-0.4    c1.619-18.721-5.995-37.054-20.4-49.12l49.52,0.32C280.963,56.729,295.941,77.856,293.44,100.72z"/><path d="M113.2,173.28h-0.08H33.84c-3.314,0-6,2.686-6,6s2.686,6,6,6h79.36c3.314,0,6-2.686,6-6S116.514,173.28,113.2,173.28z"/></g><path d="M178,0C79.693,0,0,79.693,0,178s79.693,178,178,178s178-79.693,178-178C355.868,79.748,276.252,0.132,178,0z M134,18    c-17.622,16.608-30.985,37.216-38.96,60.08c-13.247-3.217-26.22-7.47-38.8-12.72C77.237,42.631,104.171,26.227,134,18z     M48.08,74.8C61.967,81.084,76.367,86.169,91.12,90c-8.352,26.549-12.799,54.171-13.2,82v-0.24h-65.6    C13.553,136.445,26.087,102.458,48.08,74.8z M48.08,280.56c-21.993-27.658-34.527-61.645-35.76-96.96l65.6,0.16    c0.378,27.909,4.825,55.614,13.2,82.24C76.386,269.624,61.988,274.495,48.08,280.56z M56.24,290.48V290    c12.58-5.251,25.553-9.504,38.8-12.72c7.883,23.094,21.252,43.93,38.96,60.72C104.153,329.728,77.217,313.267,56.24,290.48z     M172,343.44c-26.88-3.44-50.4-29.52-65.36-68.24c21.525-4.333,43.405-6.663,65.36-6.96V343.44z M172,255.76    c-23.306,0.297-46.531,2.815-69.36,7.52C94.633,237.599,90.375,210.897,90,184v-0.24h82V255.76z M172,171.76H90    c0.306-27.139,4.564-54.089,12.64-80c22.813,4.866,46.038,7.545,69.36,8V171.76z M172,87.76    c-21.952-0.272-43.832-2.575-65.36-6.88C121.6,42,145.12,16,172,12.56V87.76z M307.92,75.28    c21.993,27.658,34.527,61.645,35.76,96.96h-65.6c-0.362-27.963-4.81-55.723-13.2-82.4C279.614,86.216,294.012,81.345,307.92,75.28    z M299.68,65.52c-12.58,5.25-25.553,9.503-38.8,12.72C252.951,55.326,239.614,34.662,222,18    C251.818,26.285,278.725,42.745,299.68,65.52z M184,12.56c26.88,3.44,50.4,29.52,65.36,68.24    c-21.525,4.332-43.405,6.662-65.36,6.96V12.56z M184,99.76c23.306-0.296,46.532-2.814,69.36-7.52    c8.076,25.911,12.334,52.861,12.64,80h-82V99.76z M184,184.24h82c-0.306,27.139-4.564,54.089-12.64,80    c-22.813-4.867-46.038-7.545-69.36-8V184.24z M184,343.44v-75.2c21.952,0.271,43.832,2.574,65.36,6.88    C234.4,314,210.88,340,184,343.44z M222,338c17.633-16.631,30.997-37.267,38.96-60.16c13.247,3.216,26.22,7.469,38.8,12.72    C278.773,313.318,251.838,329.751,222,338z M307.92,281.2c-13.887-6.284-28.286-11.37-43.04-15.2    c8.352-26.549,12.799-54.171,13.2-82v0.24h65.6C342.447,219.555,329.913,253.542,307.92,281.2z" transform="matrix(0.09570974311251404 0.03509357156449877 -0.03509357156449877 0.09570974311251404 152.21032226911598 91.71701079215443)" id="L1_7"/><g transform="matrix(0.1202310174703598 0 0 0.1202310174703598 254.3066882766193 106.30691221269888)" id="L1_8"><path d="M430.015,318.375h-19.2c0.049-0.666,0.049-1.334,0-2V89.015c0.001-7.639-6.122-13.869-13.76-14h-350    c-7.732,0-14,6.268-14,14v227.36c-0.048,0.666-0.048,1.334,0,2h-19.04c-8.114,0.431-14.363,7.323-14,15.44v19.76    c-0.363,8.117,5.886,15.009,14,15.44h416c8.114-0.431,14.363-7.323,14-15.44v-19.76    C444.378,325.698,438.129,318.806,430.015,318.375z M45.055,89.015c0-1.105,0.895-2,2-2h350c1.105,0,2,0.895,2,2v227.36    c0,1.105-0.895,2-2,2h-350c-1.105,0-2-0.895-2-2V89.015z M430.415,357.015h-416.4c-0.8,0-2-1.36-2-3.44v-19.76    c0-2.08,1.2-3.44,2-3.44h416c0.8,0,2,1.36,2,3.44l0.4,19.76C432.415,355.655,431.215,357.015,430.415,357.015z"/><path d="M360.655,101.335H83.375c-7.609-0.002-13.826,6.073-14,13.68v175.04c0,7.732,6.268,14,14,14h277.28    c7.732,0,14-6.268,14-14v-175.04C374.481,107.408,368.264,101.333,360.655,101.335z M362.655,289.975c0,1.105-0.895,2-2,2H83.375    c-1.105,0-2-0.895-2-2v-174.96c0-1.105,0.895-2,2-2h277.28c1.105,0,2,0.895,2,2V289.975z"/></g><path d="M372.759,197.804c-0.427-1.493-1.416-2.763-2.76-3.542L8.719,8.022c-2.954-1.502-6.566-0.324-8.068,2.63    c-0.642,1.263-0.816,2.711-0.492,4.09l67.2,282.48c0.71,3.237,3.91,5.285,7.146,4.575c0.291-0.064,0.576-0.149,0.854-0.255    l83.6-27.36l67.04,89.04c1.988,2.651,5.749,3.188,8.4,1.2c1.511-1.133,2.4-2.911,2.4-4.8v-111.2l131.84-43.2    C371.825,204.311,373.67,200.99,372.759,197.804z M225.119,341.942l-54.32-72l54.32-17.84V341.942z M237.759,235.222    L95.199,94.582c-2.285-2.4-6.083-2.493-8.483-0.209s-2.493,6.083-0.209,8.483c0.094,0.099,0.191,0.194,0.291,0.286l138.16,136.64    l-147.36,48l-62.8-263.12l336.8,173.68L237.759,235.222z" transform="matrix(-0.10819265252029227 -0.023184139831832394 -0.023184139831832394 0.10819265252029227 64.36715672132672 111.13320352551692)" id="L1_9"/></defs><g fi:class="KUsePattern"><pattern id="pattern_L1_0" width="350" height="350" patternUnits="userSpaceOnUse"><use xlink:href="#L1_0" x="-350" y="-350"/><use xlink:href="#L1_0" x="0" y="-350"/><use xlink:href="#L1_0" x="350" y="-350"/><use xlink:href="#L1_0" x="-350" y="0"/><use xlink:href="#L1_0" x="0" y="0"/><use xlink:href="#L1_0" x="350" y="0"/><use xlink:href="#L1_0" x="-350" y="350"/><use xlink:href="#L1_0" x="0" y="350"/><use xlink:href="#L1_0" x="350" y="350"/></pattern><rect x="0" y="0" width="100%" height="100%" fill="url(#pattern_L1_0)"/></g><g fi:class="KUsePattern"><pattern id="pattern_L1_1" width="350" height="350" patternUnits="userSpaceOnUse"><use xlink:href="#L1_1" x="-350" y="-350"/><use xlink:href="#L1_1" x="0" y="-350"/><use xlink:href="#L1_1" x="350" y="-350"/><use xlink:href="#L1_1" x="-350" y="0"/><use xlink:href="#L1_1" x="0" y="0"/><use xlink:href="#L1_1" x="350" y="0"/><use xlink:href="#L1_1" x="-350" y="350"/><use xlink:href="#L1_1" x="0" y="350"/><use xlink:href="#L1_1" x="350" y="350"/></pattern><rect x="0" y="0" width="100%" height="100%" fill="url(#pattern_L1_1)"/></g><g fi:class="KUsePattern"><pattern id="pattern_L1_2" width="350" height="350" patternUnits="userSpaceOnUse"><use xlink:href="#L1_2" x="-350" y="-350"/><use xlink:href="#L1_2" x="0" y="-350"/><use xlink:href="#L1_2" x="350" y="-350"/><use xlink:href="#L1_2" x="-350" y="0"/><use xlink:href="#L1_2" x="0" y="0"/><use xlink:href="#L1_2" x="350" y="0"/><use xlink:href="#L1_2" x="-350" y="350"/><use xlink:href="#L1_2" x="0" y="350"/><use xlink:href="#L1_2" x="350" y="350"/></pattern><rect x="0" y="0" width="100%" height="100%" fill="url(#pattern_L1_2)"/></g><g fi:class="KUsePattern" opacity="0.46"><pattern id="pattern_L1_3" width="350" height="350" patternUnits="userSpaceOnUse"><use xlink:href="#L1_3" x="-350" y="-350"/><use xlink:href="#L1_3" x="0" y="-350"/><use xlink:href="#L1_3" x="350" y="-350"/><use xlink:href="#L1_3" x="-350" y="0"/><use xlink:href="#L1_3" x="0" y="0"/><use xlink:href="#L1_3" x="350" y="0"/><use xlink:href="#L1_3" x="-350" y="350"/><use xlink:href="#L1_3" x="0" y="350"/><use xlink:href="#L1_3" x="350" y="350"/></pattern><rect x="0" y="0" width="100%" height="100%" fill="url(#pattern_L1_3)"/></g><g fi:class="KUsePattern"><pattern id="pattern_L1_4" width="350" height="350" patternUnits="userSpaceOnUse"><use xlink:href="#L1_4" x="-350" y="-350"/><use xlink:href="#L1_4" x="0" y="-350"/><use xlink:href="#L1_4" x="350" y="-350"/><use xlink:href="#L1_4" x="-350" y="0"/><use xlink:href="#L1_4" x="0" y="0"/><use xlink:href="#L1_4" x="350" y="0"/><use xlink:href="#L1_4" x="-350" y="350"/><use xlink:href="#L1_4" x="0" y="350"/><use xlink:href="#L1_4" x="350" y="350"/></pattern><rect x="0" y="0" width="100%" height="100%" fill="url(#pattern_L1_4)"/></g><g fi:class="KUsePattern"><pattern id="pattern_L1_5" width="350" height="350" patternUnits="userSpaceOnUse"><use xlink:href="#L1_5" x="-350" y="-350"/><use xlink:href="#L1_5" x="0" y="-350"/><use xlink:href="#L1_5" x="350" y="-350"/><use xlink:href="#L1_5" x="-350" y="0"/><use xlink:href="#L1_5" x="0" y="0"/><use xlink:href="#L1_5" x="350" y="0"/><use xlink:href="#L1_5" x="-350" y="350"/><use xlink:href="#L1_5" x="0" y="350"/><use xlink:href="#L1_5" x="350" y="350"/></pattern><rect x="0" y="0" width="100%" height="100%" fill="url(#pattern_L1_5)"/></g><g fi:class="KUsePattern"><pattern id="pattern_L1_6" width="350" height="350" patternUnits="userSpaceOnUse"><use xlink:href="#L1_6" x="-350" y="-350"/><use xlink:href="#L1_6" x="0" y="-350"/><use xlink:href="#L1_6" x="350" y="-350"/><use xlink:href="#L1_6" x="-350" y="0"/><use xlink:href="#L1_6" x="0" y="0"/><use xlink:href="#L1_6" x="350" y="0"/><use xlink:href="#L1_6" x="-350" y="350"/><use xlink:href="#L1_6" x="0" y="350"/><use xlink:href="#L1_6" x="350" y="350"/></pattern><rect x="0" y="0" width="100%" height="100%" fill="url(#pattern_L1_6)"/></g><g fi:class="KUsePattern" opacity="0.74"><pattern id="pattern_L1_7" width="350" height="350" patternUnits="userSpaceOnUse"><use xlink:href="#L1_7" x="-350" y="-350"/><use xlink:href="#L1_7" x="0" y="-350"/><use xlink:href="#L1_7" x="350" y="-350"/><use xlink:href="#L1_7" x="-350" y="0"/><use xlink:href="#L1_7" x="0" y="0"/><use xlink:href="#L1_7" x="350" y="0"/><use xlink:href="#L1_7" x="-350" y="350"/><use xlink:href="#L1_7" x="0" y="350"/><use xlink:href="#L1_7" x="350" y="350"/></pattern><rect x="0" y="0" width="100%" height="100%" fill="url(#pattern_L1_7)"/></g><g fi:class="KUsePattern" opacity="0.51"><pattern id="pattern_L1_8" width="350" height="350" patternUnits="userSpaceOnUse"><use xlink:href="#L1_8" x="-350" y="-350"/><use xlink:href="#L1_8" x="0" y="-350"/><use xlink:href="#L1_8" x="350" y="-350"/><use xlink:href="#L1_8" x="-350" y="0"/><use xlink:href="#L1_8" x="0" y="0"/><use xlink:href="#L1_8" x="350" y="0"/><use xlink:href="#L1_8" x="-350" y="350"/><use xlink:href="#L1_8" x="0" y="350"/><use xlink:href="#L1_8" x="350" y="350"/></pattern><rect x="0" y="0" width="100%" height="100%" fill="url(#pattern_L1_8)"/></g><g fi:class="KUsePattern" opacity="0.6"><pattern id="pattern_L1_9" width="350" height="350" patternUnits="userSpaceOnUse"><use xlink:href="#L1_9" x="-350" y="-350"/><use xlink:href="#L1_9" x="0" y="-350"/><use xlink:href="#L1_9" x="350" y="-350"/><use xlink:href="#L1_9" x="-350" y="0"/><use xlink:href="#L1_9" x="0" y="0"/><use xlink:href="#L1_9" x="350" y="0"/><use xlink:href="#L1_9" x="-350" y="350"/><use xlink:href="#L1_9" x="0" y="350"/><use xlink:href="#L1_9" x="350" y="350"/></pattern><rect x="0" y="0" width="100%" height="100%" fill="url(#pattern_L1_9)"/></g></svg>